<?xml version="1.0" encoding="iso-8859-1"?>
<!-- Generator: Adobe Illustrator 19.0.0, SVG Export Plug-In . SVG Version: 6.00 Build 0)  -->
<svg version="1.1" id="Capa_1" xmlns="http://www.w3.org/2000/svg" xmlns:xlink="http://www.w3.org/1999/xlink" x="0px" y="0px"
	 viewBox="0 0 512 512" style="enable-background:new 0 0 512 512;" xml:space="preserve">
<path style="fill:#F6A96C;" d="M406,33.6v276c0,25.499-6,51-17.401,73.801C382.899,396,376,403.5,376,419.099V512H241L136,240h202
	V33.6C338,15,353.5,0,372.4,0C391,0,406,15,406,33.6z"/>
<path style="fill:#EA9B58;" d="M406,33.6v276c0,25.499-6,51-17.401,73.801C382.899,396,376,403.5,376,419.099V512H271V240h67V33.6
	C338,15,353.5,0,372.4,0C391,0,406,15,406,33.6z"/>
<path style="fill:#FFBD86;" d="M237.25,90L237.25,90C218.61,90,203,105.11,203,123.75C203,105.11,188.39,90,169.75,90l0,0
	C151.11,90,136,105.11,136,123.75v112.5c0,18.64,15.11,33.75,33.75,33.75l0,0c18.64,0,33.25-15.11,33.25-33.75
	c0,18.64,15.61,33.75,34.25,33.75l0,0c18.64,0,33.75-15.11,33.75-33.75v-112.5C271,105.11,255.89,90,237.25,90z"/>
<path style="fill:#F6A96C;" d="M304.75,270L304.75,270c-18.64,0-33.75-15.11-33.75-33.75v-112.5C271,105.11,286.11,90,304.75,90l0,0
	c18.64,0,33.25,15.11,33.25,33.75v112.5C338,254.89,323.39,270,304.75,270z"/>
<path style="fill:#FED2A4;" d="M271,180H151c-24.853,0-45,20.147-45,45c0,3.081,0,67.522,0,64.501
	C106,327.9,122.5,365.7,153.701,399C161.8,407.401,166,418.5,166,429.901V512h75V345c0-57.9-47.1-105-105-105h75
	C244.137,240,271,213.137,271,180z"/>
</svg>
